<svg width="381" height="388" viewBox="0 0 381 388" fill="none" xmlns="http://www.w3.org/2000/svg">
<rect width="379.65" height="387.72" transform="translate(0.675049)" fill="white"/>
<path d="M151.385 167.44C155.015 159.43 160.295 153.1 167.235 148.48C174.165 143.86 182.435 141.54 192.025 141.54C201.615 141.54 209.895 143.85 216.815 148.48C223.745 153.11 229.035 159.42 232.665 167.44C233.065 168.31 233.425 169.2 233.775 170.1H262.325C260.855 164.67 258.855 159.52 256.315 154.65C250.315 143.2 241.825 134.22 230.865 127.74C219.915 121.24 207.165 118 192.635 118C192.435 118 192.235 118.01 192.035 118.01C191.835 118.01 191.635 118 191.425 118C176.895 118 164.145 121.25 153.185 127.73C142.215 134.23 133.735 143.19 127.735 154.64C125.185 159.5 123.185 164.65 121.715 170.09H150.265C150.615 169.2 150.975 168.3 151.375 167.43H151.385V167.44Z" fill="#18181B"/>
<path d="M193.535 210.39H236.585C235.565 218.28 233.165 224.86 229.375 230.17C225.585 235.47 220.685 239.46 214.645 242.15C208.605 244.84 201.505 246.18 193.315 246.18C183.775 246.18 175.465 243.99 168.415 239.6C161.365 235.22 155.945 229.11 152.165 221.3C148.385 213.48 146.485 204.55 146.485 194.48C146.485 193 146.545 191.53 146.625 190.1H118.745C118.695 191.32 118.675 192.54 118.675 193.77C118.675 208.72 121.795 221.94 128.025 233.43C134.265 244.91 142.985 253.83 154.205 260.19C165.425 266.55 178.355 269.72 193.005 269.72C207.655 269.72 219.985 266.91 230.375 261.31C240.765 255.71 248.695 247.74 254.145 237.41C259.605 227.08 262.325 214.92 262.325 200.92V190.11H193.505V210.4H193.525L193.535 210.39Z" fill="#18181B"/>
</svg>
