<svg width="777" height="425" viewBox="0 0 777 425" fill="none" xmlns="http://www.w3.org/2000/svg">
<rect width="776.51" height="424.52" fill="white"/>
<path d="M449.55 269.55C444.44 269.55 439.51 268.83 434.77 267.4C430.03 265.97 425.74 263.86 421.89 261.08C418.04 258.3 414.78 254.83 412.13 250.69H411.62V306.76H385.85V157.52H411.62V173.93H412.13C414.58 170.06 417.69 166.7 421.44 163.89C425.19 161.07 429.42 158.89 434.12 157.37C438.82 155.85 443.87 155.07 449.26 155.07C458.87 155.07 467.38 157.47 474.78 162.26C482.18 167.05 487.88 173.81 491.91 182.55C495.94 191.28 497.95 201.29 497.95 212.57C497.95 223.85 495.85 234.31 491.65 242.9C487.46 251.49 481.69 258.09 474.37 262.68C467.04 267.27 458.78 269.56 449.58 269.56H449.56L449.55 269.55ZM441.48 247.22C447.34 247.22 452.58 245.79 457.18 242.94C461.78 240.09 465.37 236.04 467.97 230.81C470.57 225.58 471.86 219.43 471.86 212.36C471.86 205.29 470.58 199.13 468.02 193.86C465.46 188.59 461.89 184.57 457.28 181.77C452.67 178.99 447.45 177.59 441.58 177.59C435.71 177.59 430.18 179.05 425.58 181.97C420.97 184.89 417.44 188.99 414.95 194.25C412.46 199.52 411.22 205.58 411.22 212.45C411.22 219.32 412.48 225.57 415 230.8C417.52 236.03 421.06 240.08 425.63 242.93C430.19 245.78 435.49 247.21 441.48 247.21H441.49L441.48 247.22Z" fill="#18181B"/>
<path d="M535.87 267.1H510.1V120.1H535.87V267.1Z" fill="#18181B"/>
<path d="M576.23 306.75L591.47 267.6L547.91 157.4H574.3L596.59 219.49C597.27 221.46 597.92 223.47 598.53 225.51C599.15 227.55 599.75 229.52 600.37 231.43C601.39 234.69 602.31 237.99 603.13 241.32H603.85C606.1 233.36 608.32 226.1 610.49 219.5L632.16 157.41H658.75L600.77 306.75H576.22H576.23Z" fill="#18181B"/>
<path d="M192.62 210.11H235.67C234.65 218 232.25 224.58 228.46 229.89C224.67 235.19 219.77 239.18 213.73 241.87C207.69 244.56 200.59 245.9 192.4 245.9C182.86 245.9 174.55 243.71 167.5 239.32C160.45 234.94 155.03 228.83 151.25 221.02C147.47 213.2 145.57 204.27 145.57 194.2C145.57 192.72 145.63 191.25 145.71 189.82H117.83C117.78 191.04 117.76 192.26 117.76 193.49C117.76 208.44 120.88 221.66 127.11 233.15C133.35 244.63 142.07 253.55 153.29 259.91C164.51 266.27 177.44 269.44 192.09 269.44C206.74 269.44 219.07 266.63 229.46 261.03C239.85 255.43 247.78 247.46 253.23 237.13C258.69 226.8 261.41 214.64 261.41 200.64V189.83H192.59V210.12H192.61L192.62 210.11Z" fill="#18181B"/>
<path d="M150.48 167.2C154.11 159.19 159.39 152.86 166.33 148.24C173.26 143.62 181.53 141.3 191.12 141.3C200.71 141.3 208.99 143.61 215.91 148.24C222.84 152.87 228.13 159.18 231.76 167.2C232.16 168.07 232.52 168.96 232.87 169.86H261.42C259.95 164.43 257.95 159.28 255.41 154.41C249.41 142.96 240.92 133.98 229.96 127.5C219.01 121 206.26 117.76 191.73 117.76C191.53 117.76 191.33 117.77 191.13 117.77C190.93 117.77 190.73 117.76 190.52 117.76C175.99 117.76 163.24 121.01 152.28 127.49C141.31 133.99 132.83 142.95 126.83 154.4C124.28 159.26 122.28 164.41 120.81 169.85H149.36C149.71 168.96 150.07 168.06 150.47 167.19H150.48V167.2Z" fill="#18181B"/>
<path d="M307.61 271.07C300.57 271.07 294.35 269.77 288.96 267.17C283.57 264.57 279.39 260.74 276.38 255.69C273.39 250.63 271.89 244.5 271.89 237.26C271.89 230.02 273.58 223.76 276.96 218.89C280.35 214.02 285.41 210.2 292.18 207.47C298.95 204.73 307.61 202.83 318.17 201.79L344.06 199.47V192.2C344.06 188.69 343.2 185.6 341.47 182.93C339.75 180.26 337.22 178.22 333.92 176.82C330.6 175.42 326.66 174.71 322.09 174.71C317.52 174.71 313.93 175.43 310.73 176.87C307.52 178.31 305.01 180.33 303.18 182.92C301.35 185.52 300.22 188.64 299.79 192.29H274.12C274.89 184.22 277.31 177.27 281.36 171.44C285.41 165.62 290.92 161.14 297.89 158.01C304.86 154.88 312.99 153.32 322.29 153.32C332.08 153.32 340.53 154.86 347.64 157.96C354.75 161.05 360.22 165.52 364.01 171.39C367.81 177.26 369.71 184.18 369.71 192.19V269.07H344.04V251.9H343.52C340.63 257.51 336.12 262.12 330 265.69C323.87 269.27 316.41 271.06 307.6 271.06V271.08L307.61 271.07ZM315.74 250.74C321.51 250.74 326.54 249.44 330.8 246.84C335.06 244.24 338.34 240.72 340.62 236.25C342.91 231.8 344.05 226.82 344.05 221.35V217.04L319.22 219.36C311.89 220.07 306.4 221.75 302.74 224.42C299.08 227.09 297.25 230.85 297.25 235.69C297.25 238.77 297.99 241.44 299.47 243.69C300.95 245.94 303.1 247.68 305.92 248.9C308.74 250.13 312.02 250.74 315.74 250.74Z" fill="#18181B"/>
</svg>
